<?xml version="1.0" encoding="utf-8"?>
<!-- Generator: Adobe Illustrator 19.1.0, SVG Export Plug-In . SVG Version: 6.00 Build 0)  -->
<svg version="1.1" id="Lager_1" xmlns="http://www.w3.org/2000/svg" xmlns:xlink="http://www.w3.org/1999/xlink" x="0px" y="0px"
	 viewBox="145.5 591.1 531.7 110.3" style="enable-background:new 145.5 591.1 531.7 110.3;" xml:space="preserve">
<style type="text/css">
	.st0{fill:#6F90A7;}
	.st1{fill:#747373;}
</style>
<rect x="185" y="625.7" class="st0" width="28.9" height="74.1"/>
<rect x="224.9" y="625.7" class="st0" width="28.9" height="74.1"/>
<polygon class="st0" points="293.2,614.7 293.2,591.1 217.6,591.1 145.5,591.1 145.5,614.7 "/>
<polygon class="st0" points="293.2,663.9 293.2,640.2 278.4,640.2 264.3,640.2 264.3,663.9 "/>
<g>
	<path class="st1" d="M354.9,687.9c0,6.8,2.5,7.9,9.7,8.2v3.8h-29.5v-3.8c7.2-0.2,9.7-1.4,9.7-8.2v-56.8h-8.2
		c-7.2,0-8.5,2.8-9.3,11.6h-5v-16.8H376l0.9,16.8h-5c-1.7-9.1-3.1-11.6-9.5-11.6h-7.3v56.8H354.9z"/>
	<path class="st1" d="M410.7,696v3.8h-28.2V696c7.2-0.2,8.6-2,8.6-8.2v-50.1c0-6.1-1.4-7.9-8.6-8.2v-3.8h50.7l1.3,16.6H430
		c-3.1-9.4-4.6-11.4-11.3-11.4h-17.4v29.4h10c6.7,0,8.8-1.5,9.2-7.6h4.4v20.7h-4.4c-0.4-5.9-2.5-7.9-9.1-7.9h-10.1v22.1
		C401.3,693.9,403,695.8,410.7,696"/>
	<path class="st1" d="M471.3,663.8h-11.8v30.7h13.6c11.5,0,14.5-4.8,14.5-15.7S484.1,663.8,471.3,663.8 M470.1,631.1h-10.6v27.6
		h11.1c10.4,0,13.7-4.5,13.7-13.4C484.2,634.8,480.5,631.1,470.1,631.1 M494.6,644.1c0,7.7-3.4,13.4-13.5,16v0.4
		c11.8,1.8,17.3,9.6,17.3,19c0,14.3-12,20.3-25.9,20.3h-31.8V696c7.2-0.2,8.6-2,8.6-8.2v-50.1c0-6.1-1.4-7.9-8.6-8.2v-3.8h27
		C486.8,625.8,494.6,632.3,494.6,644.1"/>
	<path class="st1" d="M534.7,673.8c-12.2,0-17.5,3.3-17.5,11.5c0,7.6,3,10,9.2,10c5,0,9.2-3.5,11.7-7.8l0.3-13.4
		C536.9,673.9,536.1,673.8,534.7,673.8 M555.9,695.7v3.5c-1.6,0.6-4.6,1.2-7.4,1.2c-7.6,0-9.2-3.1-9.8-7.6
		c-1.8,3.2-6.7,8.6-14.7,8.6c-10.3,0-17.3-5.5-17.3-15.3c0-12.9,11.3-17.3,28.1-17.3c1.3,0,2.4,0,3.8,0.1v-4.7
		c0-9.2-2.1-13.3-9.8-13.3c-9,0-11.6,4.7-12.4,9.7h-6.8V651c4.5-2.5,12.8-5.5,20.1-5.5c12,0,18.7,5.5,18.7,18
		c0,3.2-0.4,12.4-0.4,22.2C548,693.8,549,695.2,555.9,695.7"/>
	<path class="st1" d="M617.6,696.1v3.7h-24.3v-3.7c6.8-0.3,7.5-1.5,7.5-6.8V662c0-6.3-2.7-8.8-7.8-8.8c-6.4,0-10.5,2.6-14.8,6.8
		v29.3c0,5.3,0.8,6.4,7.5,6.8v3.7H561v-3.7c6.1-0.4,7.5-1.4,7.5-7.5v-26.3c0-7.8-1.5-8.9-7.8-9.1V650l13.7-4.3h1.6
		c0.8,1.7,1.7,5.6,1.8,9.3c4.8-5,10.2-9.2,18.3-9.2c8.6,0,14.5,5,14.5,14.4v28.4C610.7,694.7,612,695.7,617.6,696.1"/>
	<path class="st1" d="M667.8,689.7c3.3,4.2,5.9,6,9.4,6.4v3.7h-13l-22.4-28.1l14.7-15c1.3-1.3,1.9-2.5,1.9-3.3
		c0-1.5-1.7-2.5-4.8-2.6v-3.6h20.2v3.6c-4.3,0.4-7.3,3.9-12.3,8.8l-9.9,9.8L667.8,689.7z M648.3,696.1v3.7h-24.8v-3.7
		c6.1-0.4,7.5-1.4,7.5-7.5v-51.5c0-7.8-1.8-8.9-8.2-9.1v-3.4l15-3.1h1.6c0.6,1.9,1.3,5.8,1.3,10.6v57.3
		C640.8,694.6,641.6,695.8,648.3,696.1"/>
</g>
</svg>
